<?xml version="1.0" encoding="UTF-8" standalone="no"?>
<!-- Created with Inkscape (http://www.inkscape.org/) -->

<svg
   xmlns:dc="http://purl.org/dc/elements/1.1/"
   xmlns:cc="http://creativecommons.org/ns#"
   xmlns:rdf="http://www.w3.org/1999/02/22-rdf-syntax-ns#"
   xmlns:svg="http://www.w3.org/2000/svg"
   xmlns="http://www.w3.org/2000/svg"
   xmlns:sodipodi="http://sodipodi.sourceforge.net/DTD/sodipodi-0.dtd"
   xmlns:inkscape="http://www.inkscape.org/namespaces/inkscape"
   width="42mm"
   height="9mm"
   viewBox="0 0 42 9"
   version="1.1"
   id="svg8"
   inkscape:version="0.92.4 5da689c313, 2019-01-14"
   sodipodi:docname="02_PATINA_pfad.svg">
  <defs
     id="defs2" />
  <sodipodi:namedview
     id="base"
     pagecolor="#ffffff"
     bordercolor="#666666"
     borderopacity="1.0"
     inkscape:pageopacity="0.0"
     inkscape:pageshadow="2"
     inkscape:zoom="4"
     inkscape:cx="106.00453"
     inkscape:cy="-8.6331046"
     inkscape:document-units="mm"
     inkscape:current-layer="text3715"
     showgrid="false"
     inkscape:window-width="1872"
     inkscape:window-height="1024"
     inkscape:window-x="48"
     inkscape:window-y="28"
     inkscape:window-maximized="1" />
  <metadata
     id="metadata5">
    <rdf:RDF>
      <cc:Work
         rdf:about="">
        <dc:format>image/svg+xml</dc:format>
        <dc:type
           rdf:resource="http://purl.org/dc/dcmitype/StillImage" />
        <dc:title></dc:title>
      </cc:Work>
    </rdf:RDF>
  </metadata>
  <g
     inkscape:label="Ebene 1"
     inkscape:groupmode="layer"
     id="layer1"
     transform="translate(0,-288)">
    <g
       aria-label="Patina"
       style="font-style:normal;font-weight:normal;font-size:10.58333302px;line-height:1.25;font-family:sans-serif;letter-spacing:0px;word-spacing:0px;fill:#000000;fill-opacity:1;stroke:none;stroke-width:0.26458332"
       id="text3715">
      <path
         d="m 0.7170208,296.59244 q -0.0211667,0 -0.0423333,0 -0.0105833,0 -0.03175,0 -0.16933333,-0.0212 -0.30691666,-0.11642 -0.13758333,-0.0953 -0.13758333,-0.26458 0,-0.11642 0.0846667,-0.17992 0.09525,-0.0635 0.20108333,-0.10583 0.03175,-0.0106 0.0529167,-0.0212 0.0211667,-0.0106 0.0529167,-0.0212 0.0423333,-0.0212 0.0846667,-0.0423 0.0529167,-0.0212 0.0740833,-0.0529 0.03175,-0.0529 0.03175,-0.10583 0.0105833,-0.0529 0.0105833,-0.10583 0,-0.0106 0,-0.0212 0,-0.0106 0,-0.0212 v -6.0325 q 0,-0.0106 0,-0.0212 0,-0.0106 0,-0.0212 0,0 0,-0.0106 0,-0.0106 0,-0.0212 0,-0.0529 -0.0105833,-0.0847 -0.0105833,-0.0423 -0.03175,-0.0847 -0.0211667,-0.0317 -0.0635,-0.0529 -0.0423333,-0.0212 -0.09525,-0.0423 -0.0211667,-0.0106 -0.0529167,-0.0212 -0.0211667,-0.0106 -0.0529167,-0.0212 -0.10583333,-0.0423 -0.20108333,-0.10583 -0.0846667,-0.0741 -0.0846667,-0.1905 0,-0.15875 0.13758333,-0.254 0.13758333,-0.0953 0.30691666,-0.11642 0.0211667,0 0.03175,0 0.0211667,0 0.0423333,0 h 2.6987499 v 7.09084 -0.0106 q 0,0.0106 0,0.0212 0,0.0106 0,0.0106 0,0.0635 0,0.11642 0.010583,0.0529 0.052917,0.10583 0.021167,0.0317 0.0635,0.0529 0.042333,0.0212 0.09525,0.0423 0.03175,0.0106 0.052917,0.0212 0.021167,0.0106 0.042333,0.0212 0.1058333,0.0423 0.1905,0.10583 0.09525,0.0635 0.09525,0.16933 0,0.0106 0,0.0106 0,0 0,0 0,0.16933 -0.1375834,0.26458 -0.1375833,0.0953 -0.3069166,0.11642 -0.021167,0 -0.042333,0 -0.010583,0 -0.03175,0 H 0.7170208 Z m 3.1749999,-3.1115 -0.010583,-0.60325 q 0.1164166,-0.0212 0.2010833,-0.0529 0.09525,-0.0423 0.1799167,-0.10583 0.010583,-0.0106 0.021167,-0.0212 0.021167,-0.0212 0.042333,-0.0317 0.15875,-0.14817 0.2010833,-0.3175 0.052917,-0.17992 0.052917,-0.40217 v -1.89441 q 0,-0.24342 -0.03175,-0.4445 -0.03175,-0.21167 -0.2434167,-0.34925 -0.03175,-0.0212 -0.0635,-0.0317 -0.03175,-0.0212 -0.0635,-0.0318 -0.052917,-0.0317 -0.1164167,-0.0423 -0.0635,-0.0106 -0.1375833,-0.0106 v -0.68792 h 0.5715 q 1.27,0.0106 1.9579166,0.75142 0.6985,0.74083 0.6773333,1.80975 -0.010583,1.10067 -0.6879166,1.78858 -0.6773333,0.67734 -2.2119166,0.67734 H 3.8920207 Z"
         style="word-spacing:-0.01852083px"
         id="path3806" />
      <path
         d="m 9.1044363,289.96727 0.2963333,1.22767 -0.9313333,3.72533 q -0.010583,0.0212 -0.021167,0.0529 -0.010583,0.0317 -0.021167,0.0635 -0.010583,0.0635 -0.03175,0.13758 -0.010583,0.0741 -0.010583,0.16933 0,0.0423 0,0.10584 0.010583,0.0529 0.021167,0.11641 0.03175,0.14817 0.1375833,0.22225 0.1058334,0.0741 0.22225,0.127 0.1375834,0.0635 0.2434167,0.14817 0.1164166,0.0847 0.127,0.26458 0,0.0106 0,0.0106 0,0 0,0 0,0.11641 -0.1058333,0.17991 -0.09525,0.0635 -0.2116667,0.0741 -0.010583,0 -0.021167,0 0,0 -0.010583,0 l -1.49225,0.0106 q -0.010583,-0.0106 -0.052917,-0.0106 -0.03175,0 -0.084667,0 -0.03175,0 -0.0635,0 -0.03175,0 -0.0635,0 -0.084667,-0.0106 -0.1693333,-0.0423 -0.074083,-0.0317 -0.1058333,-0.10583 -0.010583,-0.0423 -0.021167,-0.0741 -0.010583,-0.0423 -0.010583,-0.0741 0,-0.127 0.084667,-0.1905 0.09525,-0.0741 0.2010833,-0.127 0.03175,-0.0106 0.052917,-0.0212 0.03175,-0.0212 0.0635,-0.0318 0.074083,-0.0423 0.1481667,-0.0847 0.074083,-0.0529 0.127,-0.11642 0.1375833,-0.16933 0.2434166,-0.34925 0.1164167,-0.17991 0.1799167,-0.42333 l 1.2805833,-4.98475 z m 1.3864167,3.84175 -1.1535834,-4.78367 0.1481667,-0.5715 h 2.3812497 l 1.735667,7.05909 q 0.02117,0.127 0.07408,0.23283 0.0635,0.0953 0.179917,0.13758 0.03175,0.0106 0.05292,0.0212 0.02117,0.0106 0.04233,0.0212 0.127,0.0423 0.179916,0.10583 0.05292,0.0635 0.0635,0.17992 0,0.0106 0,0.0212 0,0 0,0.0106 0,0.14816 -0.137583,0.254 -0.127,0.0953 -0.28575,0.0953 l -2.846916,0.0106 q -0.01058,-0.0106 -0.03175,-0.0106 -0.01058,0 -0.02117,0 -0.169333,0 -0.3175,-0.0529 -0.137583,-0.0635 -0.137583,-0.27517 0,0 0,0 0,0 0,-0.0106 0,0 0,0 0,0 0,0 0.01058,-0.15875 0.07408,-0.21167 0.0635,-0.0635 0.148167,-0.10583 0,0 0,0 0,0 0.01058,0 0.0635,-0.0317 0.116417,-0.0741 0.0635,-0.0423 0.08467,-0.14817 0.01058,-0.0423 0.01058,-0.0741 0,-0.0423 0,-0.0847 0,-0.0529 0,-0.0953 0,-0.0529 -0.02117,-0.10583 l -0.211667,-0.81492 H 9.0197696 l 0.2010833,-0.73025 h 1.2700001 z"
         style="word-spacing:-0.01852083px"
         id="path3808" />
      <path
         d="m 19.060766,295.5341 q 0,0.0106 0,0.0212 0,0.0106 0,0.0106 0,0.0635 0,0.11642 0.01058,0.0529 0.05292,0.10583 0.02117,0.0317 0.0635,0.0529 0.04233,0.0212 0.09525,0.0423 0.03175,0.0106 0.05292,0.0212 0.02117,0.0106 0.04233,0.0212 0.105834,0.0423 0.1905,0.10583 0.09525,0.0635 0.09525,0.16933 0,0.0106 0,0.0106 0,0 0,0 0,0.16933 -0.137583,0.26458 -0.137583,0.0953 -0.306917,0.11642 -0.02117,0 -0.04233,0 -0.01058,0 -0.03175,0 h -2.794 q -0.02117,0 -0.04233,0 -0.01058,0 -0.03175,0 -0.169334,-0.0212 -0.306917,-0.11642 -0.137583,-0.0953 -0.137583,-0.26458 0,-0.11642 0.08467,-0.17992 0.09525,-0.0635 0.201084,-0.10583 0.03175,-0.0106 0.05292,-0.0212 0.02117,-0.0106 0.05292,-0.0212 0.04233,-0.0212 0.08467,-0.0423 0.05292,-0.0212 0.07408,-0.0529 0.03175,-0.0529 0.03175,-0.10583 0.01058,-0.0529 0.01058,-0.10583 0,-0.0106 0,-0.0212 0,-0.0106 0,-0.0212 v -7.08025 h 2.63525 l 0.01058,7.08025 z m -3.217334,-7.08025 v 0.68792 l -0.137583,0.0741 q -0.148167,0.0635 -0.232833,0.22225 -0.08467,0.15875 -0.148167,0.33867 -0.01058,0.0529 -0.03175,0.10583 -0.02117,0.0529 -0.03175,0.10584 -0.01058,0.0106 -0.02117,0.0317 0,0.0106 0,0.0212 -0.105833,0.28575 -0.148166,0.49742 -0.04233,0.21167 -0.08467,0.35983 -0.04233,0.1905 -0.105833,0.29634 -0.0635,0.10583 -0.243417,0.13758 0,0 -0.01058,0 0,0 -0.01058,0 -0.01058,0 -0.02117,0 0,0 -0.01058,0 -0.137583,0 -0.211666,-0.127 -0.07408,-0.127 -0.09525,-0.28575 0,-0.0423 -0.01058,-0.0847 0,-0.0529 0,-0.0953 v -2.286 h 1.55575 z m 5.17525,0 v 2.286 q 0,0.0423 -0.01058,0.0953 0,0.0423 0,0.0952 -0.03175,0.14817 -0.105834,0.28575 -0.0635,0.127 -0.201083,0.11642 -0.01058,0 -0.02117,0 0,0 0,0 -0.01058,0 -0.02117,0 0,0 -0.01058,0 -0.179916,-0.0317 -0.254,-0.13758 -0.0635,-0.10584 -0.105833,-0.29634 -0.03175,-0.15875 -0.08467,-0.37041 -0.04233,-0.21167 -0.137583,-0.48684 -0.02117,-0.0635 -0.04233,-0.127 -0.02117,-0.0635 -0.05292,-0.127 -0.0635,-0.16933 -0.15875,-0.32808 -0.09525,-0.15875 -0.243416,-0.254 l -0.105834,-0.0635 v -0.68792 h 1.55575 z"
         style="font-style:normal;font-variant:normal;font-weight:normal;font-stretch:normal;font-family:CutOut;-inkscape-font-specification:CutOut;stroke-width:0.26458332"
         id="path3810" />
      <path
         d="m 25.546927,289.5016 v 6.04309 -0.0106 q 0,0.0106 0,0.0212 0,0.0106 0,0.0106 0,0.0635 0,0.11642 0.01058,0.0529 0.05292,0.10583 0.02117,0.0317 0.0635,0.0529 0.04233,0.0212 0.09525,0.0423 0.02117,0.0106 0.04233,0.0212 0.03175,0.0106 0.05292,0.0212 0.105833,0.0423 0.1905,0.10583 0.09525,0.0635 0.09525,0.17992 0,0 0,0.0106 0,0 0,0 0,0 0,0.0106 0,0 0,0 0,0.16934 -0.127,0.254 -0.127,0.0847 -0.275167,0.0952 -0.03175,0.0106 -0.0635,0.0106 -0.02117,0 -0.05292,0 h -2.772834 q -0.02117,0 -0.04233,0 -0.01058,0 -0.03175,0 -0.169333,-0.0212 -0.306917,-0.10584 -0.137583,-0.0847 -0.137583,-0.27516 0,-0.13759 0.08467,-0.20109 0.09525,-0.0635 0.201083,-0.10583 0.02117,0 0.04233,-0.0106 0.03175,-0.0106 0.05292,-0.0106 0.05292,-0.0212 0.09525,-0.0423 0.05292,-0.0212 0.07408,-0.0529 0.03175,-0.0529 0.03175,-0.10583 0.01058,-0.0529 0.01058,-0.10583 0,-0.0106 0,-0.0212 0,-0.0106 0,-0.0212 v -6.0325 q 0,-0.0106 0,-0.0212 0,-0.0106 0,-0.0212 0,0 0,-0.0106 0,-0.0106 0,-0.0212 0,-0.0529 -0.01058,-0.0847 -0.01058,-0.0423 -0.03175,-0.0847 -0.02117,-0.0317 -0.0635,-0.0529 -0.04233,-0.0212 -0.09525,-0.0423 -0.02117,0 -0.05292,-0.0106 -0.02117,-0.0106 -0.05292,-0.0212 -0.105833,-0.0423 -0.201083,-0.10584 -0.08467,-0.0741 -0.08467,-0.20108 0,0 0,0 0,-0.0106 0,-0.0106 0,0 0,0 0,-0.0106 0,-0.0106 0,-0.15875 0.127,-0.23283 0.127,-0.0847 0.275167,-0.10583 0.03175,-0.0106 0.05292,-0.0106 0.03175,0 0.0635,0 h 2.772834 q 0.02117,0 0.03175,0 0.02117,0 0.04233,0 0.169333,0.0106 0.306917,0.0953 0.137583,0.0741 0.137583,0.27517 0,0 0,0 0,0 0,0 0,0.0106 0,0.0106 0,0 0,0 0,0.127 -0.09525,0.20109 -0.08467,0.0635 -0.1905,0.0953 -0.02117,0.0106 -0.04233,0.0212 -0.02117,0.0106 -0.04233,0.0106 -0.05292,0.0212 -0.105833,0.0423 -0.04233,0.0212 -0.0635,0.0529 -0.01058,0.0106 -0.02117,0.0317 -0.01058,0.0106 -0.01058,0.0212 -0.02117,0.0317 -0.02117,0.0741 0,0.0317 0,0.0741 0,0.0106 0,0.0212 0,0.0106 0,0.0212 z"
         style="font-style:normal;font-variant:normal;font-weight:normal;font-stretch:normal;font-family:CutOut;-inkscape-font-specification:CutOut;stroke-width:0.26458332"
         id="path3812" />
      <path
         d="m 27.951913,289.40635 q -0.04233,-0.0847 -0.105833,-0.13758 -0.0635,-0.0635 -0.15875,-0.0847 -0.169333,-0.0529 -0.3175,-0.14816 -0.148167,-0.0952 -0.137583,-0.24342 0,0 0,0 0,-0.0106 0,-0.0212 0,-0.0106 0,-0.0106 0,-0.0106 0,-0.0106 0.03175,-0.127 0.127,-0.21167 0.105833,-0.0847 0.232833,-0.0847 h 2.942167 l 3.132666,5.5245 v 2.61409 h -1.640417 l -4.074583,-7.18609 z m 1.153584,7.18609 h -1.397 q -0.01058,0 -0.02117,0 0,0 -0.01058,0 -0.15875,-0.0106 -0.296334,-0.0847 -0.137583,-0.0847 -0.148166,-0.254 0,0 0,0 0,-0.0106 0,-0.0106 0,0 0,0 0,-0.0106 0,-0.0106 0,-0.11641 0.0635,-0.17991 0.0635,-0.0635 0.15875,-0.10584 0.03175,-0.0212 0.0635,-0.0317 0.03175,-0.0212 0.0635,-0.0423 0.07408,-0.0423 0.137583,-0.0953 0.07408,-0.0635 0.127,-0.16933 0.116417,-0.21167 0.15875,-0.45509 0.05292,-0.24341 0.05292,-0.508 v -4.16983 l 0.635,1.06892 v 3.18558 q 0,0.254 0.03175,0.41275 0.04233,0.14817 0.09525,0.27517 0.02117,0.0317 0.03175,0.0635 0.02117,0.0317 0.03175,0.0741 0.05292,0.11642 0.127,0.1905 0.08467,0.0741 0.169333,0.13758 0.04233,0.0212 0.08467,0.0529 0.04233,0.0212 0.08467,0.0423 0.08467,0.0635 0.137584,0.127 0.0635,0.0635 0.0635,0.15875 0,0.0106 0,0.0212 0,0 0,0.0106 -0.01058,0.15875 -0.148167,0.23284 -0.137583,0.0635 -0.296333,0.0635 z m 3.513666,-8.13859 h 1.386417 q 0.179916,0 0.328083,0.0847 0.148167,0.0741 0.15875,0.254 0,0.0106 0,0.0212 0,0 0,0.0106 0,0.10583 -0.0635,0.15875 -0.05292,0.0529 -0.137583,0.10583 -0.04233,0.0106 -0.08467,0.0318 -0.03175,0.0212 -0.0635,0.0423 -0.07408,0.0423 -0.148167,0.10583 -0.0635,0.0635 -0.116416,0.16933 -0.105834,0.21167 -0.15875,0.45509 -0.05292,0.23283 -0.05292,0.508 v 2.78341 l -0.645583,-1.05833 v -1.80975 q 0,-0.254 -0.03175,-0.40217 -0.03175,-0.15875 -0.08467,-0.28575 -0.01058,-0.0317 -0.03175,-0.0635 -0.01058,-0.0423 -0.03175,-0.0741 -0.05292,-0.11642 -0.137583,-0.1905 -0.07408,-0.0741 -0.15875,-0.13758 -0.04233,-0.0212 -0.08467,-0.0423 -0.04233,-0.0318 -0.08467,-0.0529 -0.08467,-0.0635 -0.148166,-0.127 -0.05292,-0.0635 -0.05292,-0.15875 0,-0.0106 0,-0.0106 0,-0.0106 0,-0.0212 0.02117,-0.15875 0.148167,-0.22225 0.137583,-0.0741 0.296333,-0.0741 z"
         style="font-style:normal;font-variant:normal;font-weight:normal;font-stretch:normal;font-family:CutOut;-inkscape-font-specification:CutOut;stroke-width:0.26458332"
         id="path3814" />
      <path
         d="m 36.726903,289.96727 0.296333,1.22767 -0.931333,3.72533 q -0.01058,0.0212 -0.02117,0.0529 -0.01058,0.0317 -0.02117,0.0635 -0.01058,0.0635 -0.03175,0.13758 -0.01058,0.0741 -0.01058,0.16933 0,0.0423 0,0.10584 0.01058,0.0529 0.02117,0.11641 0.03175,0.14817 0.137583,0.22225 0.105834,0.0741 0.22225,0.127 0.137584,0.0635 0.243417,0.14817 0.116417,0.0847 0.127,0.26458 0,0.0106 0,0.0106 0,0 0,0 0,0.11641 -0.105833,0.17991 -0.09525,0.0635 -0.211667,0.0741 -0.01058,0 -0.02117,0 0,0 -0.01058,0 l -1.49225,0.0106 q -0.01058,-0.0106 -0.05292,-0.0106 -0.03175,0 -0.08467,0 -0.03175,0 -0.0635,0 -0.03175,0 -0.0635,0 -0.08467,-0.0106 -0.169334,-0.0423 -0.07408,-0.0317 -0.105833,-0.10583 -0.01058,-0.0423 -0.02117,-0.0741 -0.01058,-0.0423 -0.01058,-0.0741 0,-0.127 0.08467,-0.1905 0.09525,-0.0741 0.201083,-0.127 0.03175,-0.0106 0.05292,-0.0212 0.03175,-0.0212 0.0635,-0.0318 0.07408,-0.0423 0.148166,-0.0847 0.07408,-0.0529 0.127,-0.11642 0.137584,-0.16933 0.243417,-0.34925 0.116417,-0.17991 0.179917,-0.42333 l 1.280583,-4.98475 z m 1.386416,3.84175 -1.153583,-4.78367 0.148167,-0.5715 h 2.38125 l 1.735666,7.05909 q 0.02117,0.127 0.07408,0.23283 0.0635,0.0953 0.179916,0.13758 0.03175,0.0106 0.05292,0.0212 0.02117,0.0106 0.04233,0.0212 0.127,0.0423 0.179917,0.10583 0.05292,0.0635 0.0635,0.17992 0,0.0106 0,0.0212 0,0 0,0.0106 0,0.14816 -0.137583,0.254 -0.127,0.0953 -0.28575,0.0953 l -2.846917,0.0106 q -0.01058,-0.0106 -0.03175,-0.0106 -0.01058,0 -0.02117,0 -0.169333,0 -0.3175,-0.0529 -0.137583,-0.0635 -0.137583,-0.27517 0,0 0,0 0,0 0,-0.0106 0,0 0,0 0,0 0,0 0.01058,-0.15875 0.07408,-0.21167 0.0635,-0.0635 0.148167,-0.10583 0,0 0,0 0,0 0.01058,0 0.0635,-0.0317 0.116417,-0.0741 0.0635,-0.0423 0.08467,-0.14817 0.01058,-0.0423 0.01058,-0.0741 0,-0.0423 0,-0.0847 0,-0.0529 0,-0.0953 0,-0.0529 -0.02117,-0.10583 l -0.211666,-0.81492 h -1.608667 l 0.201084,-0.73025 h 1.269999 z"
         style="font-style:normal;font-variant:normal;font-weight:normal;font-stretch:normal;font-family:CutOut;-inkscape-font-specification:CutOut;stroke-width:0.26458332"
         id="path3816" />
    </g>
  </g>
</svg>
